{
    "asset" : {
        "generator" : "Khronos glTF Blender I/O v3.3.32",
        "version" : "2.0"
    },
    "scene" : 0,
    "scenes" : [
        {
            "name" : "Scene",
            "nodes" : [
                0,
                1
            ]
        }
    ],
    "nodes" : [
        {
            "mesh" : 0,
            "name" : "cuerpo"
        },
        {
            "mesh" : 1,
            "name" : "cabeza"
        }
    ],
    "materials" : [
        {
            "doubleSided" : true,
            "name" : "material_0",
            "pbrMetallicRoughness" : {
                "metallicFactor" : 0,
                "roughnessFactor" : 0.6000000238418579
            }
        }
    ],
    "meshes" : [
        {
            "name" : "Object_6",
            "primitives" : [
                {
                    "attributes" : {
                        "POSITION" : 0,
                        "NORMAL" : 1,
                        "COLOR_0" : 2
                    },
                    "indices" : 3,
                    "material" : 0
                }
            ]
        },
        {
            "name" : "Object_6.001",
            "primitives" : [
                {
                    "attributes" : {
                        "POSITION" : 4,
                        "NORMAL" : 5,
                        "COLOR_0" : 6
                    },
                    "indices" : 7,
                    "material" : 0
                }
            ]
        }
    ],
    "accessors" : [
        {
            "bufferView" : 0,
            "componentType" : 5126,
            "count" : 8039,
            "max" : [
                64.12641143798828,
                111.44605255126953,
                37.468624114990234
            ],
            "min" : [
                -64.12641143798828,
                51.93177032470703,
                -34.25100326538086
            ],
            "type" : "VEC3"
        },
        {
            "bufferView" : 1,
            "componentType" : 5126,
            "count" : 8039,
            "type" : "VEC3"
        },
        {
            "bufferView" : 2,
            "componentType" : 5123,
            "count" : 8039,
            "normalized" : true,
            "type" : "VEC4"
        },
        {
            "bufferView" : 3,
            "componentType" : 5123,
            "count" : 45990,
            "type" : "SCALAR"
        },
        {
            "bufferView" : 4,
            "componentType" : 5126,
            "count" : 12566,
            "max" : [
                91.7045669555664,
                203.89361572265625,
                52.801212310791016
            ],
            "min" : [
                -91.70457458496094,
                90.67453002929688,
                -63.66157150268555
            ],
            "type" : "VEC3"
        },
        {
            "bufferView" : 5,
            "componentType" : 5126,
            "count" : 12566,
            "type" : "VEC3"
        },
        {
            "bufferView" : 6,
            "componentType" : 5123,
            "count" : 12566,
            "normalized" : true,
            "type" : "VEC4"
        },
        {
            "bufferView" : 7,
            "componentType" : 5123,
            "count" : 72873,
            "type" : "SCALAR"
        }
    ],
    "bufferViews" : [
        {
            "buffer" : 0,
            "byteLength" : 96468,
            "byteOffset" : 0,
            "target" : 34962
        },
        {
            "buffer" : 0,
            "byteLength" : 96468,
            "byteOffset" : 96468,
            "target" : 34962
        },
        {
            "buffer" : 0,
            "byteLength" : 64312,
            "byteOffset" : 192936,
            "target" : 34962
        },
        {
            "buffer" : 0,
            "byteLength" : 91980,
            "byteOffset" : 257248,
            "target" : 34963
        },
        {
            "buffer" : 0,
            "byteLength" : 150792,
            "byteOffset" : 349228,
            "target" : 34962
        },
        {
            "buffer" : 0,
            "byteLength" : 150792,
            "byteOffset" : 500020,
            "target" : 34962
        },
        {
            "buffer" : 0,
            "byteLength" : 100528,
            "byteOffset" : 650812,
            "target" : 34962
        },
        {
            "buffer" : 0,
            "byteLength" : 145746,
            "byteOffset" : 751340,
            "target" : 34963
        }
    ],
    "buffers" : [
        {
            "byteLength" : 897088,
            "uri" : "chimmy.bin"
        }
    ]
}
